<svg xmlns="http://www.w3.org/2000/svg" viewBox="0 0 64 64">
  <defs>
    <linearGradient id="g" x1="0" y1="0" x2="1" y2="1">
      <stop stop-color="#75ddd0"/>
      <stop offset="1" stop-color="#1f6f5c"/>
    </linearGradient>
  </defs>
  <rect width="64" height="64" rx="18" fill="#f5fff9"/>
  <path d="M32 54C44 42.5 53 32.5 53 20.5 53 10 45.2 3 35 3c-2.3 0-4.4.6-6 1.6C26 1.7 21.6 0 16.6 0 7.4 0 1 7.6 1 17 1 33.6 15 45.8 32 54Z" fill="url(#g)" opacity=".24"/>
  <path d="M30 48c2-14.4 8-24.8 18.4-31.4M29.2 37.2c-5.7-1.4-10-4.7-12.8-9.7" fill="none" stroke="#226b58" stroke-width="3" stroke-linecap="round"/>
</svg>
